<svg width="51" height="24" viewBox="0 0 51 24" fill="none" xmlns="http://www.w3.org/2000/svg">
<g clip-path="url(#clip0)">
<path d="M15.2461 6.18592C15.0514 6.36511 14.8566 6.54056 14.6619 6.71975C13.984 7.36184 13.4709 8.10472 13.2912 9.03426C13.0403 10.3222 13.3062 11.5018 14.0889 12.5583C14.4821 13.0884 14.9465 13.5252 15.5682 13.779C15.6393 13.8089 15.7142 13.835 15.8041 13.8686C15.7217 14.0889 15.6506 14.3054 15.5644 14.5144C15.0588 15.7389 14.3997 16.87 13.5009 17.8518C13.3324 18.0347 13.1451 18.199 12.9504 18.3558C12.295 18.8859 11.5572 19.0875 10.7296 18.8485C10.3176 18.7291 9.90567 18.5947 9.49371 18.4678C9.07052 18.3371 8.63984 18.2326 8.19418 18.2214C7.63991 18.2065 7.12684 18.3744 6.61752 18.5611C6.22803 18.703 5.83855 18.8523 5.43783 18.9456C4.80492 19.0949 4.23567 18.9008 3.71136 18.5462C3.18331 18.1878 2.76387 17.7211 2.4006 17.206C1.4943 15.9143 0.801464 14.5144 0.378274 12.9913C2.41919e-05 11.6362 -0.104837 10.2624 0.10863 8.87001C0.295883 7.64182 0.756523 6.53309 1.62163 5.61849C2.52044 4.67029 3.62523 4.27831 4.92476 4.40897C5.5689 4.47243 6.18684 4.65909 6.80851 4.83827C7.06692 4.91294 7.32907 4.96893 7.59123 5.03613C7.96573 5.12945 8.33275 5.08839 8.69227 4.98386C9.2016 4.83454 9.70343 4.66655 10.209 4.51723C10.9655 4.29324 11.7295 4.22978 12.5085 4.3791C13.5159 4.57322 14.3136 5.11452 14.9802 5.86861C15.0626 5.96193 15.145 6.05899 15.2274 6.15605C15.2349 6.15979 15.2386 6.17099 15.2461 6.18592Z" fill="#962689"/>
<path d="M11.4562 0C11.4675 0.220252 11.4974 0.429305 11.4824 0.634624C11.4038 1.75082 10.9656 2.71395 10.1904 3.52403C9.84212 3.88987 9.45638 4.21092 8.97702 4.39757C8.57255 4.5581 8.13813 4.59169 7.70745 4.62156C7.69996 4.62156 7.69247 4.61409 7.68872 4.61036C7.75239 2.11666 9.01447 0.500233 11.4562 0Z" fill="#962689"/>
<path d="M20.6614 2.96738C21.6613 2.80312 22.9683 2.65753 24.6349 2.65753C26.6797 2.65753 28.1777 3.13163 29.1289 3.98651C30.009 4.74433 30.5333 5.90905 30.5333 7.33135C30.5333 8.77606 30.1064 9.91465 29.2974 10.7471C28.2039 11.9081 26.4175 12.5017 24.3989 12.5017C23.781 12.5017 23.208 12.4793 22.7324 12.3598V18.7621H20.6614V2.96738ZM22.7324 10.6725C23.1855 10.7919 23.7548 10.8367 24.4439 10.8367C26.9418 10.8367 28.4623 9.6272 28.4623 7.42095C28.4623 5.31175 26.9643 4.29262 24.6798 4.29262C23.7773 4.29262 23.0844 4.36355 22.7286 4.45688V10.6725H22.7324Z" fill="#13130A"/>
<path d="M38.001 18.7582L37.8362 17.3135H37.765C37.1246 18.2131 35.885 19.0195 34.2447 19.0195C31.9153 19.0195 30.7244 17.3844 30.7244 15.7232C30.7244 12.9495 33.1998 11.4301 37.6452 11.4563V11.2173C37.6452 10.2691 37.3831 8.56312 35.0274 8.56312C33.9563 8.56312 32.8403 8.89536 32.0314 9.41799L31.5558 8.04422C32.507 7.42826 33.8852 7.02509 35.3383 7.02509C38.8586 7.02509 39.7162 9.42173 39.7162 11.7213V16.0144C39.7162 17.0111 39.7649 17.9817 39.9072 18.7656H38.001V18.7582ZM37.6939 12.901C35.4094 12.8524 32.8178 13.2556 32.8178 15.4843C32.8178 16.8356 33.7204 17.4777 34.7915 17.4777C36.2895 17.4777 37.2407 16.5295 37.5741 15.5552C37.6452 15.3424 37.6939 15.1035 37.6939 14.8907V12.901Z" fill="#13130A"/>
<path d="M42.4951 7.2829L45.0155 14.0659C45.2777 14.8237 45.5623 15.7271 45.7533 16.414H45.802C46.0154 15.7271 46.2551 14.8499 46.5397 14.0174L48.8242 7.2829H51.0375L47.8992 15.4621C46.4012 19.3968 45.3788 21.4126 43.9519 22.6483C42.9295 23.5479 41.9071 23.9063 41.3828 23.9997L40.8585 22.2451C41.3828 22.0808 42.0719 21.7486 42.6898 21.226C43.2591 20.7743 43.9744 19.9679 44.45 18.904C44.5436 18.6912 44.6148 18.5232 44.6148 18.4075C44.6148 18.288 44.5661 18.1238 44.4725 17.8625L40.2144 7.28663H42.4951V7.2829Z" fill="#13130A"/>
</g>
<defs>
<clipPath id="clip0">
<rect width="51" height="24" fill="white"/>
</clipPath>
</defs>
</svg>
