<svg width="19" height="14" viewBox="0 0 19 14" fill="none" xmlns="http://www.w3.org/2000/svg">
<path d="M0.856825 6.5075L6.32557 0.124675C6.468 -0.0415582 6.69871 -0.0415582 6.8411 0.124675C6.98353 0.290907 6.98353 0.560183 6.8411 0.726376L1.9947 6.38284H17.8854C18.0869 6.38284 18.25 6.57317 18.25 6.80838C18.25 7.04358 18.0869 7.23391 17.8854 7.23391H1.9947L6.8411 12.8903C6.98353 13.0566 6.98353 13.3258 6.8411 13.492C6.76991 13.5751 6.6766 13.6167 6.58332 13.6167C6.49004 13.6167 6.39677 13.5751 6.32554 13.492L0.856791 7.10921C0.714397 6.94301 0.714397 6.67374 0.856825 6.5075Z" fill="#103742"/>
</svg>
