<svg width="19" height="14" viewBox="0 0 19 14" fill="none" xmlns="http://www.w3.org/2000/svg">
<path d="M18.1432 6.5075L12.6744 0.124675C12.532 -0.0415582 12.3013 -0.0415582 12.1589 0.124675C12.0165 0.290907 12.0165 0.560183 12.1589 0.726376L17.0053 6.38284H1.11459C0.913071 6.38284 0.75 6.57317 0.75 6.80838C0.75 7.04358 0.913071 7.23391 1.11459 7.23391H17.0053L12.1589 12.8903C12.0165 13.0566 12.0165 13.3258 12.1589 13.492C12.2301 13.5751 12.3234 13.6167 12.4167 13.6167C12.51 13.6167 12.6032 13.5751 12.6745 13.492L18.1432 7.10921C18.2856 6.94301 18.2856 6.67374 18.1432 6.5075Z" fill="#103742"/>
</svg>
