<svg width="31" height="31" viewBox="0 0 31 31" fill="none" xmlns="http://www.w3.org/2000/svg">
<path d="M25.8333 5.47357V2.58333C25.8315 1.15733 24.676 0.00180833 23.25 0H2.58333C1.15733 0.00180833 0.00180833 1.15733 0 2.58333V13.95C0.00400418 15.2694 1.00414 16.3729 2.31673 16.5067L4.25888 21.5482C4.77193 22.8794 6.26691 23.5426 7.59823 23.0302L19.7263 18.3582C18.8883 20.5472 19.1267 23.0028 20.3698 24.9897L20.6667 25.4644V30.4833C20.6667 30.7688 20.8979 31 21.1833 31H30.4833C30.7688 31 31 30.7688 31 30.4833V13.4288C30.9951 11.6421 30.2838 9.93008 29.0205 8.66644L25.8333 5.47357ZM25.8333 8.56349L27.4014 12.6341C27.7087 13.4331 27.3105 14.3296 26.5116 14.6372L25.6153 14.9833C25.7584 14.6576 25.8326 14.3055 25.8333 13.95V8.56349ZM1.03333 13.95V2.58333C1.03333 1.72748 1.72748 1.03333 2.58333 1.03333H23.25C24.1059 1.03333 24.8 1.72748 24.8 2.58333V5.86727H24.7955L24.8 5.87902V13.95C24.796 14.0402 24.7842 14.1295 24.7649 14.2176L20.0322 9.48445C18.9684 8.44518 17.2724 8.43717 16.1991 9.46559C15.1254 10.4947 15.061 12.1893 16.0539 13.2963L18.0715 15.5H2.58333C1.72748 15.5 1.03333 14.8059 1.03333 13.95ZM7.65235 16.5333L3.97833 17.9478L3.4348 16.5333H7.65235ZM7.22662 22.0657C6.42785 22.3736 5.53079 21.9754 5.22298 21.1766L4.35137 18.91L10.5188 16.5333V16.5302H19.0185L19.69 17.2624L7.22662 22.0657ZM29.9667 29.9667H21.7V25.8333H29.9667V29.9667ZM29.9667 24.8H21.4701L21.246 24.4419C19.9862 22.4288 19.9361 19.886 21.1151 17.825C21.2267 17.63 21.1994 17.3851 21.0475 17.2195L16.8135 12.6005C16.1821 11.9094 16.2177 10.8411 16.8936 10.1938C17.5698 9.54645 18.6386 9.55704 19.3015 10.2173L27.5347 18.4486L28.2653 17.7181L26.3536 15.8064L26.8837 15.5997C28.2139 15.0865 28.8768 13.5929 28.365 12.2619L26.6162 7.72094L28.29 9.39817C29.3595 10.4674 29.9625 11.9164 29.9667 13.4288V24.8Z" fill="black"/>
</svg>
