<svg width="14" height="15" viewBox="0 0 14 15" fill="none" xmlns="http://www.w3.org/2000/svg">
<path d="M8.28262 7.7546L13.734 2.30311C14.0887 1.94852 14.0887 1.37518 13.734 1.02059C13.3794 0.66599 12.806 0.66599 12.4514 1.02059L6.99993 6.47207L1.5486 1.02059C1.19384 0.66599 0.620669 0.66599 0.266072 1.02059C-0.0886908 1.37518 -0.0886908 1.94852 0.266072 2.30311L5.7174 7.7546L0.266072 13.2061C-0.0886908 13.5607 -0.0886908 14.134 0.266072 14.4886C0.44279 14.6655 0.675146 14.7544 0.907337 14.7544C1.13953 14.7544 1.37172 14.6655 1.5486 14.4886L6.99993 9.03713L12.4514 14.4886C12.6283 14.6655 12.8605 14.7544 13.0927 14.7544C13.3249 14.7544 13.5571 14.6655 13.734 14.4886C14.0887 14.134 14.0887 13.5607 13.734 13.2061L8.28262 7.7546Z" fill="#103742"/>
</svg>
