<svg width="50" height="20" viewBox="0 0 50 20" fill="none" xmlns="http://www.w3.org/2000/svg">
<g clip-path="url(#clip0)">
<path d="M23.6491 2.93851V7.99339H26.7392C27.4739 7.99339 28.0846 7.74339 28.5654 7.24644C29.0612 6.74948 29.3061 6.15497 29.3061 5.46595C29.3061 4.79217 29.0582 4.2068 28.5654 3.7068C28.0846 3.19461 27.4739 2.93851 26.7392 2.93851H23.6491ZM23.6491 9.77083V15.6336H21.8018V1.15802H26.6999C27.9456 1.15802 28.9977 1.5757 29.8685 2.41107C30.7544 3.24643 31.1958 4.26473 31.1958 5.4629C31.1958 6.68851 30.7544 7.7129 29.8685 8.53607C29.0129 9.35924 27.9546 9.76778 26.6999 9.76778L23.6491 9.77083Z" fill="#5F6368"/>
<path d="M33.0613 12.6002C33.0613 13.0849 33.2638 13.4904 33.675 13.8136C34.0832 14.1367 34.5609 14.2983 35.1112 14.2983C35.8882 14.2983 36.5776 14.0087 37.1884 13.4294C37.7961 12.8502 38.1015 12.1703 38.1015 11.3898C37.527 10.9294 36.7227 10.7008 35.6917 10.7008C34.9419 10.7008 34.316 10.8837 33.8141 11.2465C33.3122 11.6123 33.0613 12.0605 33.0613 12.6002ZM35.4498 5.40503C36.8165 5.40503 37.8928 5.77088 38.682 6.50564C39.4711 7.2404 39.8642 8.24649 39.8642 9.52698V15.6337H38.0984V14.2587H38.0168C37.2549 15.3898 36.239 15.9569 34.9661 15.9569C33.8837 15.9569 32.9736 15.6337 32.2449 14.9873C31.5162 14.338 31.1504 13.5331 31.1504 12.5605C31.1504 11.5361 31.5344 10.7221 32.3024 10.1154C33.0733 9.50869 34.0983 9.20381 35.3833 9.20381C36.4809 9.20381 37.3849 9.40503 38.0924 9.81052V9.38674C38.0924 8.7404 37.8384 8.19161 37.3305 7.7404C36.8195 7.28918 36.2269 7.06357 35.5436 7.06357C34.5125 7.06357 33.6962 7.50259 33.0945 8.37759L31.4739 7.34405C32.3719 6.05137 33.6962 5.40503 35.4498 5.40503Z" fill="#5F6368"/>
<path d="M50.0006 5.72797L43.8356 19.9993H41.9308L44.2196 15.0054L40.165 5.72797H42.1727L45.1024 12.8438H45.1418L47.9929 5.72797H50.0006Z" fill="#5F6368"/>
<path d="M16.1855 8.50659C16.1855 7.92122 16.1371 7.3572 16.0434 6.81451H8.25781V10.0188H12.7175C12.527 11.0645 11.9465 11.9517 11.0697 12.5462V14.6255H13.7304C15.2875 13.1773 16.1855 11.0371 16.1855 8.50659Z" fill="#962689"/>
<path d="M8.25777 16.635C10.4861 16.635 12.3637 15.8972 13.7303 14.6258L11.0696 12.5466C10.3289 13.0496 9.37344 13.3423 8.25777 13.3423C6.10502 13.3423 4.27579 11.8789 3.62271 9.90936H0.880371V12.0527C2.23793 14.7691 5.03167 16.635 8.25777 16.635Z" fill="#962689"/>
<path d="M3.62267 9.90923C3.45637 9.40618 3.36265 8.86959 3.36265 8.31776C3.36265 7.76593 3.45335 7.22935 3.62267 6.7263V4.58301H0.880333C0.317958 5.70496 0.000488281 6.97325 0.000488281 8.31776C0.000488281 9.66228 0.317958 10.9306 0.880333 12.0525L3.62267 9.90923Z" fill="#962689"/>
<path d="M8.25777 3.29335C9.47322 3.29335 10.5647 3.71408 11.4264 4.5403L13.7817 2.1653C12.3516 0.823839 10.4831 -0.00238037 8.25777 -0.00238037C5.03167 -0.00238037 2.23793 1.86347 0.880371 4.57994L3.62271 6.72323C4.27579 4.75372 6.10502 3.29335 8.25777 3.29335Z" fill="#962689"/>
</g>
<defs>
<clipPath id="clip0">
<rect width="50" height="20" fill="white"/>
</clipPath>
</defs>
</svg>
