<svg width="23" height="23" viewBox="0 0 23 23" fill="none" xmlns="http://www.w3.org/2000/svg">
<g clip-path="url(#clip0)">
<path d="M2.27974 1.86783C0.557974 3.65848 0.910361 5.56064 0.910361 11.3393C0.910361 16.1382 0.0741251 20.9489 4.45067 22.0814C5.81732 22.4333 17.9263 22.4333 19.2911 22.0796C21.1133 21.6088 22.5959 20.129 22.7986 17.5486C22.8269 17.1884 22.8269 5.49666 22.7977 5.12921C22.5822 2.38062 20.8924 0.796549 18.6658 0.475713C18.1555 0.401674 18.0532 0.379737 15.4349 0.375166C6.14779 0.379737 4.11198 -0.0343337 2.27974 1.86783Z" fill="url(#paint0_linear)"/>
<path d="M11.8633 3.24427C8.5485 3.24427 5.40074 2.94903 4.19843 6.03856C3.7018 7.31459 3.77392 8.97178 3.77392 11.3447C3.77392 13.4269 3.70727 15.3839 4.19843 16.6499C5.398 19.7413 8.57132 19.4451 11.8615 19.4451C15.0357 19.4451 18.3085 19.776 19.5255 16.6499C20.023 15.3611 19.95 13.7286 19.95 11.3447C19.95 8.18021 20.1243 6.13728 18.5915 4.60348C17.0396 3.04957 14.9408 3.24427 11.8597 3.24427H11.8633ZM11.1385 4.70403C18.0529 4.69306 18.933 3.92342 18.4473 14.6152C18.2748 18.3967 15.3991 17.9817 11.8642 17.9817C5.419 17.9817 5.23368 17.7971 5.23368 11.341C5.23368 4.81006 5.74491 4.70768 11.1385 4.7022V4.70403ZM16.1814 6.04861C15.6455 6.04861 15.211 6.48371 15.211 7.02026C15.211 7.55681 15.6455 7.99191 16.1814 7.99191C16.7173 7.99191 17.1519 7.55681 17.1519 7.02026C17.1519 6.48371 16.7173 6.04861 16.1814 6.04861ZM11.8633 7.18479C9.56914 7.18479 7.70952 9.04765 7.70952 11.3447C7.70952 13.6417 9.56914 15.5037 11.8633 15.5037C14.1575 15.5037 16.0162 13.6417 16.0162 11.3447C16.0162 9.04765 14.1575 7.18479 11.8633 7.18479ZM11.8633 8.64455C15.4283 8.64455 15.4328 14.0448 11.8633 14.0448C8.29927 14.0448 8.29379 8.64455 11.8633 8.64455Z" fill="white"/>
</g>
<defs>
<linearGradient id="paint0_linear" x1="2.32176" y1="20.9115" x2="22.7067" y2="3.2906" gradientUnits="userSpaceOnUse">
<stop stop-color="#FFDD55"/>
<stop offset="0.5" stop-color="#FF543E"/>
<stop offset="1" stop-color="#C837AB"/>
</linearGradient>
<clipPath id="clip0">
<rect width="21.9101" height="21.9375" fill="white" transform="translate(0.910156 0.375)"/>
</clipPath>
</defs>
</svg>
