<svg width="38" height="38" viewBox="0 0 38 38" fill="none" xmlns="http://www.w3.org/2000/svg">
<g clip-path="url(#clip0)">
<path d="M9.14253 17.7778L26.4152 0.505538C27.0897 -0.16902 28.1834 -0.16902 28.858 0.505653C29.5324 1.18021 29.5324 2.2738 28.8578 2.94836L12.8065 18.9993L28.858 35.0511C29.5324 35.7257 29.5324 36.8193 28.8578 37.4938C28.5207 37.8311 28.0786 37.9997 27.6365 37.9997C27.1945 37.9997 26.7524 37.8311 26.4151 37.4937L9.14253 20.2205C8.81849 19.8966 8.63655 19.4573 8.63655 18.9992C8.63655 18.5411 8.81849 18.1017 9.14253 17.7778Z" fill="white" fill-opacity="0.5"/>
</g>
<defs>
<clipPath id="clip0">
<rect width="38" height="38" fill="white" transform="matrix(-1 0 0 1 38 0)"/>
</clipPath>
</defs>
</svg>
