<svg width="16" height="16" viewBox="0 0 16 16" fill="none" xmlns="http://www.w3.org/2000/svg">
<g clip-path="url(#clip0)">
<path d="M3.84944 7.48518L11.1222 0.212646C11.4061 -0.0713783 11.8666 -0.0713784 12.1507 0.212694C12.4346 0.496719 12.4346 0.957179 12.1506 1.2412L5.39218 7.99951L12.1507 14.7581C12.4346 15.0422 12.4346 15.5026 12.1506 15.7867C12.0087 15.9287 11.8225 15.9997 11.6364 15.9997C11.4503 15.9997 11.2641 15.9287 11.1221 15.7866L3.84944 8.51369C3.71301 8.3773 3.6364 8.19233 3.6364 7.99946C3.6364 7.80659 3.71301 7.62157 3.84944 7.48518Z" fill="#103742"/>
</g>
<defs>
<clipPath id="clip0">
<rect width="16" height="16" fill="white" transform="matrix(-1 0 0 1 16 0)"/>
</clipPath>
</defs>
</svg>
