<svg width="35" height="35" viewBox="0 0 35 35" fill="none" xmlns="http://www.w3.org/2000/svg">
<g clip-path="url(#clip0)">
<path d="M0.00744147 24.2867C0.00744147 28.8883 3.73751 32.6184 8.33899 32.6184C12.9405 32.6184 16.6706 28.8883 16.6706 24.2867C16.6706 19.6852 12.9405 15.9552 8.33899 15.9552C7.39332 15.9552 6.48808 16.12 5.64064 16.4106C7.5156 5.6572 15.9012 -1.27751 8.12777 4.42989C-0.491748 10.7588 -0.00179001 24.0321 0.00785482 24.2754C0.00785482 24.2792 0.00744147 24.2825 0.00744147 24.2867Z" fill="#962689"/>
<path d="M18.3367 24.2867C18.3367 28.8883 22.0668 32.6184 26.6683 32.6184C31.2698 32.6184 34.9999 28.8883 34.9999 24.2867C34.9999 19.6852 31.2698 15.9552 26.6682 15.9552C25.7225 15.9552 24.8173 16.12 23.9699 16.4106C25.8448 5.6572 34.2304 -1.27751 26.457 4.42989C17.8375 10.7588 18.3274 24.0321 18.3371 24.2754C18.3371 24.2792 18.3367 24.2825 18.3367 24.2867Z" fill="#962689"/>
</g>
<defs>
<clipPath id="clip0">
<rect width="35" height="35" fill="white"/>
</clipPath>
</defs>
</svg>
