<svg width="31" height="31" viewBox="0 0 31 31" fill="none" xmlns="http://www.w3.org/2000/svg">
<path d="M17.5613 27.0049H14.4761C14.3155 27.0049 14.1615 27.0687 14.0479 27.1822C13.9344 27.2958 13.8706 27.4498 13.8706 27.6104C13.8706 27.7709 13.9344 27.9249 14.0479 28.0385C14.1615 28.152 14.3155 28.2158 14.4761 28.2158H17.5613C17.7219 28.2158 17.8759 28.152 17.9894 28.0385C18.103 27.9249 18.1668 27.7709 18.1668 27.6104C18.1668 27.4498 18.103 27.2958 17.9894 27.1822C17.8759 27.0687 17.7219 27.0049 17.5613 27.0049Z" fill="#962689"/>
<path d="M28.0938 10.0508C26.873 10.0508 25.8178 10.3924 25.0423 11.0387C24.9708 11.0984 24.8978 11.1644 24.8243 11.2365V1.9375C24.8231 1.52036 24.6569 1.12066 24.3619 0.8257C24.0669 0.53074 23.6672 0.364495 23.2501 0.363281H8.71885C8.30171 0.364495 7.90201 0.53074 7.60705 0.8257C7.31209 1.12066 7.14584 1.52036 7.14463 1.9375V3.54805L7.06961 3.47303C6.59269 2.99611 5.94584 2.72817 5.27137 2.72817C4.5969 2.72817 3.95005 2.99611 3.47313 3.47303C2.9962 3.94995 2.72827 4.5968 2.72827 5.27127C2.72827 5.94574 2.9962 6.59259 3.47313 7.06951L6.09323 9.68962C5.66916 9.81329 5.2846 10.0453 4.9774 10.3627C4.6702 10.6801 4.45094 11.0721 4.34122 11.5C4.23149 11.9279 4.23508 12.377 4.35162 12.803C4.46816 13.2291 4.69364 13.6175 5.00587 13.93L6.49629 15.4204C6.02307 15.478 5.57557 15.6675 5.20487 15.9672C4.83416 16.2669 4.55519 16.6648 4.39978 17.1155C4.24437 17.5662 4.21879 18.0514 4.32596 18.516C4.43313 18.9805 4.66873 19.4055 5.00587 19.7425L6.0118 20.7486C5.53858 20.8062 5.09108 20.9957 4.72037 21.2954C4.34967 21.5951 4.07069 21.993 3.91528 22.4437C3.75987 22.8944 3.73429 23.3796 3.84146 23.8441C3.94863 24.3087 4.18423 24.7337 4.52138 25.0707L7.14463 27.6941V29.0625C7.14509 29.4799 7.3111 29.88 7.60622 30.1751C7.90134 30.4703 8.30148 30.6363 8.71885 30.6367H20.3438C20.5044 30.6367 20.6584 30.5729 20.772 30.4594C20.8855 30.3458 20.9493 30.1918 20.9493 30.0312V24.2188C20.9505 23.7114 21.0692 23.2112 21.2961 22.7574C21.523 22.3036 21.852 21.9085 22.2571 21.6031L24.5821 19.8594C24.657 19.8026 24.7177 19.7294 24.7597 19.6454C24.8017 19.5614 24.8238 19.4689 24.8243 19.375V14.5312C24.8243 12.1198 26.2962 11.4473 27.4884 11.298V30.0312C27.4884 30.1918 27.5522 30.3458 27.6657 30.4594C27.7793 30.5729 27.9333 30.6367 28.0938 30.6367C28.2544 30.6367 28.4084 30.5729 28.522 30.4594C28.6355 30.3458 28.6993 30.1918 28.6993 30.0312V10.6562C28.6993 10.4957 28.6355 10.3417 28.522 10.2281C28.4084 10.1146 28.2544 10.0508 28.0938 10.0508ZM8.71885 1.57422H23.2501C23.3464 1.57431 23.4388 1.61262 23.5069 1.68073C23.575 1.74884 23.6133 1.84118 23.6134 1.9375V3.75124H8.35557V1.9375C8.35566 1.84118 8.39397 1.74884 8.46208 1.68073C8.53018 1.61262 8.62253 1.57431 8.71885 1.57422ZM3.93898 5.27121C3.92687 4.0983 5.39277 3.49204 6.21336 4.32916L7.14463 5.26049V9.02863L4.3292 6.2132C4.2051 6.08979 4.10671 5.94299 4.03972 5.7813C3.97274 5.6196 3.9385 5.44623 3.93898 5.27121ZM5.862 11.19C6.35788 10.6733 7.24998 10.6733 7.7458 11.19L10.4858 13.9301C11.6891 15.2223 9.88934 17.0175 8.60205 15.8139L5.862 13.0738C5.61259 12.8238 5.47253 12.4851 5.47253 12.1319C5.47253 11.7788 5.61259 11.44 5.862 11.19ZM11.3421 13.0738L10.684 12.4157C10.8093 11.2119 11.3497 10.0893 12.2127 9.24067C13.0756 8.39205 14.2071 7.87039 15.4128 7.76528C16.6185 7.66018 17.8231 7.97818 18.8199 8.66468C19.8166 9.35118 20.5432 10.3633 20.8748 11.5273C21.2065 12.6912 21.1225 13.9344 20.6373 15.0431C20.152 16.1519 19.2959 17.0571 18.2159 17.6032C17.1358 18.1494 15.8993 18.3024 14.7187 18.0361C13.5381 17.7697 12.4871 17.1005 11.7462 16.1436C12.0254 15.6585 12.1371 15.0951 12.0641 14.5402C11.991 13.9854 11.7373 13.4701 11.3421 13.0738ZM5.862 17.0025C6.35788 16.4858 7.24998 16.4858 7.7458 17.0025L10.4858 19.7426C11.6891 21.0348 9.88934 22.83 8.60205 21.6264L5.862 18.8863C5.61259 18.6363 5.47253 18.2976 5.47253 17.9444C5.47253 17.5913 5.61259 17.2525 5.862 17.0025ZM5.37763 22.3307C5.87351 21.8139 6.76561 21.8139 7.26143 22.3307L10.0015 25.0707C11.2047 26.363 9.40497 28.1582 8.11768 26.9545L5.37763 24.2145C5.12822 23.9644 4.98815 23.6257 4.98815 23.2726C4.98815 22.9194 5.12822 22.5807 5.37763 22.3307ZM8.35557 29.0625V28.457C8.58447 28.5227 8.82142 28.5559 9.05955 28.5559C9.41178 28.556 9.76019 28.4829 10.0827 28.3412C10.4051 28.1995 10.6946 27.9923 10.9327 27.7327C11.1708 27.4732 11.3523 27.1669 11.4658 26.8335C11.5792 26.5 11.6221 26.1466 11.5916 25.7957H19.7384V29.4258H8.71885C8.62253 29.4257 8.53018 29.3874 8.46208 29.3193C8.39397 29.2512 8.35566 29.1588 8.35557 29.0625ZM21.5306 20.6344C20.9753 21.0529 20.5246 21.5943 20.2136 22.2161C19.9027 22.838 19.74 23.5235 19.7384 24.2188V24.5845H11.1632C11.0733 24.4518 10.971 24.3279 10.8577 24.2145L9.85168 23.2084C10.3249 23.1508 10.7724 22.9614 11.1431 22.6616C11.5138 22.3619 11.7928 21.964 11.9482 21.5133C12.1036 21.0627 12.1292 20.5774 12.022 20.1129C11.9148 19.6484 11.6792 19.2234 11.3421 18.8863L9.85168 17.3959C10.2242 17.3516 10.5821 17.2245 10.8991 17.024C11.8142 18.1396 13.0787 18.9141 14.4882 19.2226C15.8978 19.531 17.3701 19.3553 18.6675 18.7238C19.9649 18.0924 21.0116 17.042 21.6384 15.7424C22.2653 14.4428 22.4358 12.9698 22.1224 11.5614C21.809 10.1529 21.03 8.89122 19.9112 7.98006C18.7923 7.06891 17.399 6.56149 15.9563 6.53976C14.5136 6.51803 13.1056 6.98326 11.9599 7.8603C10.8141 8.73734 9.99745 9.97499 9.64177 11.3734C9.64177 11.3734 8.44142 10.184 8.35557 10.1174V4.96218H23.6134V19.0723L21.5306 20.6344Z" fill="black"/>
<path d="M15.3184 13.5625H16.3477C16.5752 13.5705 16.7907 13.6665 16.9488 13.8303C17.1069 13.9941 17.1953 14.2128 17.1953 14.4404C17.1953 14.6681 17.1069 14.8868 16.9488 15.0506C16.7907 15.2143 16.5752 15.3103 16.3477 15.3184H14.8214C14.6099 15.3232 14.4581 15.1178 14.4891 14.9159C14.492 14.7553 14.431 14.6002 14.3195 14.4846C14.2079 14.369 14.0551 14.3025 13.8945 14.2996C13.7339 14.2967 13.5788 14.3578 13.4632 14.4693C13.3476 14.5808 13.2811 14.7336 13.2782 14.8942L13.277 14.957C13.2733 15.1621 13.3106 15.3659 13.3865 15.5565C13.4625 15.7471 13.5756 15.9207 13.7194 16.0671C13.8632 16.2135 14.0347 16.3297 14.2239 16.4091C14.4131 16.4884 14.6162 16.5293 14.8214 16.5293H15.2579V16.8926C15.2579 17.0532 15.3217 17.2072 15.4352 17.3207C15.5488 17.4343 15.7028 17.498 15.8634 17.498C16.0239 17.498 16.1779 17.4343 16.2915 17.3207C16.405 17.2072 16.4688 17.0532 16.4688 16.8926V16.5255C17.0059 16.4864 17.507 16.2415 17.8679 15.8419C18.2288 15.4423 18.4215 14.9188 18.4059 14.3806C18.3903 13.8424 18.1676 13.3309 17.7841 12.9529C17.4007 12.5749 16.8861 12.3595 16.3477 12.3516H15.3184C15.0936 12.3516 14.878 12.2623 14.7191 12.1033C14.5601 11.9443 14.4708 11.7287 14.4708 11.5039C14.4708 11.2791 14.5601 11.0635 14.7191 10.9045C14.878 10.7456 15.0936 10.6562 15.3184 10.6562H16.8207C17.0339 10.6741 17.1449 10.79 17.1537 11.004C17.1503 11.0835 17.1625 11.1628 17.1898 11.2375C17.217 11.3122 17.2587 11.3808 17.3124 11.4394C17.421 11.5577 17.5721 11.6281 17.7326 11.635C17.893 11.6419 18.0496 11.5848 18.1679 11.4762C18.2863 11.3677 18.3566 11.2165 18.3635 11.0561C18.3725 10.8479 18.3392 10.64 18.2657 10.445C18.1922 10.25 18.08 10.0719 17.9359 9.92144C17.7917 9.77094 17.6186 9.65118 17.427 9.56935C17.2353 9.48753 17.0291 9.44533 16.8207 9.44531H16.4688V9.08203C16.4688 8.92145 16.405 8.76745 16.2915 8.6539C16.1779 8.54035 16.0239 8.47656 15.8634 8.47656C15.7028 8.47656 15.5488 8.54035 15.4352 8.6539C15.3217 8.76745 15.2579 8.92145 15.2579 9.08203V9.44683C14.7176 9.46288 14.2053 9.69084 13.8316 10.0815C13.458 10.4721 13.253 10.994 13.261 11.5345C13.2689 12.075 13.4892 12.5906 13.8741 12.9701C14.2591 13.3496 14.7779 13.5623 15.3184 13.5625Z" fill="#962689"/>
</svg>
