<svg width="31" height="31" viewBox="0 0 31 31" fill="none" xmlns="http://www.w3.org/2000/svg">
<g clip-path="url(#clip0)">
<path d="M10.4474 23.7282C10.4395 23.6895 10.428 23.6514 10.4129 23.6144C10.3977 23.5781 10.3789 23.543 10.3571 23.5103C10.3354 23.477 10.3099 23.4461 10.2821 23.4182C10.2542 23.3904 10.2233 23.365 10.19 23.3432C10.1573 23.3214 10.1222 23.3026 10.0853 23.2875C10.049 23.2723 10.0108 23.2602 9.97207 23.253C9.89396 23.2372 9.81344 23.2372 9.73594 23.253C9.69719 23.2602 9.65904 23.2723 9.62211 23.2875C9.58578 23.3026 9.55066 23.3214 9.51797 23.3432C9.48467 23.365 9.45379 23.3904 9.42594 23.4182C9.39809 23.4461 9.37266 23.477 9.35086 23.5103C9.32846 23.543 9.31029 23.5781 9.29516 23.6144C9.28002 23.6514 9.26791 23.6895 9.26064 23.7282C9.25277 23.767 9.24854 23.807 9.24854 23.8463C9.24854 23.8857 9.25277 23.9256 9.26064 23.9644C9.26791 24.0031 9.28002 24.0413 9.29516 24.0776C9.31029 24.1145 9.32846 24.1497 9.35086 24.1823C9.37266 24.2156 9.39809 24.2465 9.42594 24.2744C9.45379 24.3022 9.48467 24.3277 9.51797 24.3495C9.55066 24.3713 9.58578 24.3901 9.62211 24.4052C9.65904 24.4204 9.69719 24.4325 9.73594 24.4397C9.77469 24.4476 9.81465 24.4518 9.854 24.4518C9.89336 24.4518 9.93332 24.4476 9.97207 24.4397C10.0108 24.4325 10.049 24.4204 10.0853 24.4052C10.1222 24.3901 10.1573 24.3713 10.19 24.3495C10.2233 24.3277 10.2542 24.3022 10.2821 24.2744C10.3099 24.2465 10.3354 24.2156 10.3571 24.1823C10.3789 24.1497 10.3977 24.1145 10.4129 24.0776C10.428 24.0413 10.4395 24.0031 10.4474 23.9644C10.4552 23.9256 10.4595 23.8857 10.4595 23.8463C10.4595 23.807 10.4552 23.767 10.4474 23.7282Z" fill="#962689"/>
<path d="M27.8511 23.9149C27.8488 23.9089 27.8464 23.9029 27.8438 23.897C27.2865 22.593 25.9796 22.111 24.4328 22.6393L20.2147 23.8058C19.9708 23.0672 19.3625 22.4388 18.5023 22.1196C18.497 22.1176 18.4917 22.1157 18.4863 22.1139L13.8496 20.5401C13.4636 20.0413 12.2547 18.7648 9.99132 18.7648C8.40954 18.7648 7.01024 19.85 6.20969 21.0327H0.605469C0.271068 21.0327 0 21.3038 0 21.6382V29.2718C0 29.6062 0.271068 29.8772 0.605469 29.8772H4.2054C4.5398 29.8772 4.81087 29.6062 4.81087 29.2718V28.749H6.4991C6.8335 28.749 7.10457 28.4779 7.10457 28.1435V27.9693C8.0887 28.0551 8.41238 28.2418 9.31623 28.763C10.0113 29.1638 11.0619 29.7696 12.9537 30.6202C12.9625 30.6241 12.9714 30.6279 12.9803 30.6314C13.3434 30.7742 14.0532 30.9986 14.9283 30.9986C15.5374 30.9986 16.2267 30.8898 16.9342 30.5691L26.2579 27.2308C26.2745 27.2249 26.2908 27.2182 26.3068 27.2108C27.1979 26.8009 28.5258 25.6454 27.8511 23.9149ZM3.59994 28.6662H1.21094V22.2436H3.59994V28.6662ZM5.89363 27.538H4.81087V22.2436H5.89363V27.538ZM25.823 26.1002L16.5035 29.437C16.4953 29.4399 16.4842 29.4443 16.4762 29.4475C16.468 29.4509 16.4599 29.4544 16.4518 29.4581C15.1539 30.0546 13.9201 29.6975 13.4366 29.5095C11.6091 28.6872 10.6338 28.1248 9.92115 27.7138C8.93036 27.1425 8.45295 26.8672 7.10457 26.7558V21.8792C7.67849 20.9386 8.79147 19.9757 9.99138 19.9757C12.0491 19.9757 12.9211 21.3141 12.9553 21.3681C13.0293 21.4884 13.1429 21.579 13.2765 21.6243L18.0885 23.2575C18.857 23.546 19.2632 24.2041 19.0765 24.8604C18.9903 25.1635 18.7913 25.4149 18.516 25.5683C18.2431 25.7203 17.9277 25.7579 17.627 25.6747L12.2024 23.9557C11.8835 23.8546 11.5433 24.0312 11.4423 24.35C11.3413 24.6688 11.5178 25.009 11.8366 25.1101L17.2706 26.8321C17.2764 26.8339 17.2821 26.8357 17.2879 26.8373C17.5049 26.899 17.7258 26.9295 17.9453 26.9295C18.3472 26.9295 18.7447 26.8271 19.1054 26.6261C19.6633 26.3153 20.0666 25.8059 20.2412 25.1916C20.2552 25.1426 20.2675 25.0936 20.2782 25.0445L24.8243 23.7851C25.4809 23.5609 26.3427 23.48 26.7265 24.3638C27.1237 25.4014 26.0913 25.9722 25.823 26.1002Z" fill="black"/>
<path d="M21.74 7.96439C21.7321 7.92564 21.7206 7.8875 21.7048 7.85057C21.6897 7.81424 21.6715 7.77912 21.6491 7.74643C21.6273 7.71312 21.6019 7.68225 21.5741 7.65439C21.5462 7.62654 21.5153 7.60111 21.482 7.57932C21.4493 7.55752 21.4142 7.53875 21.3779 7.52361C21.341 7.50848 21.3028 7.49637 21.2647 7.4891C21.1866 7.47336 21.106 7.47336 21.0279 7.4891C20.9892 7.49637 20.951 7.50848 20.9147 7.52361C20.8778 7.53875 20.8427 7.55752 20.81 7.57932C20.7767 7.60111 20.7458 7.62654 20.7179 7.65439C20.6901 7.68225 20.6646 7.71312 20.6429 7.74643C20.6211 7.77912 20.6023 7.81424 20.5871 7.85057C20.572 7.8875 20.5599 7.92564 20.5526 7.96439C20.5448 8.00314 20.5405 8.04311 20.5405 8.08246C20.5405 8.12182 20.5448 8.16178 20.5526 8.20053C20.5599 8.23928 20.572 8.27742 20.5871 8.31375C20.6023 8.35068 20.6211 8.3858 20.6429 8.4185C20.6646 8.4518 20.6901 8.48268 20.7179 8.51053C20.7458 8.53838 20.7767 8.56381 20.81 8.5856C20.8427 8.6074 20.8778 8.62617 20.9147 8.64131C20.951 8.65645 20.9892 8.66795 21.0279 8.67582C21.0667 8.68369 21.1066 8.68793 21.146 8.68793C21.1854 8.68793 21.2253 8.68369 21.2647 8.67582C21.3028 8.66795 21.341 8.65645 21.3779 8.64131C21.4142 8.62617 21.4493 8.6074 21.482 8.5856C21.5153 8.56381 21.5462 8.53838 21.5741 8.51053C21.6019 8.48268 21.6273 8.4518 21.6491 8.4185C21.6715 8.3858 21.6897 8.35068 21.7048 8.31375C21.7206 8.27742 21.7321 8.23928 21.74 8.20053C21.7478 8.16178 21.7515 8.12182 21.7515 8.08246C21.7515 8.04311 21.7478 8.00314 21.74 7.96439Z" fill="#962689"/>
<path d="M30.3946 2.05187H26.7946C26.4602 2.05187 26.1892 2.32294 26.1892 2.65734V3.1801H24.5009C24.1665 3.1801 23.8955 3.45117 23.8955 3.78557V3.95982C22.9114 3.87391 22.5877 3.6873 21.6839 3.16611C20.9888 2.76529 19.9383 2.15952 18.0463 1.3089C18.0376 1.3049 18.0287 1.30121 18.0197 1.2977C17.4039 1.05539 15.7899 0.578642 14.0661 1.35988L11.6297 2.23224L9.57596 0.178608C9.33953 -0.0578272 8.95614 -0.0578272 8.71971 0.178608L1.97733 6.92093C1.75924 7.13908 1.7174 7.51731 1.97733 7.77724L13.4986 19.2985C13.683 19.483 14.1147 19.5387 14.3549 19.2985L20.5104 13.1431C20.6705 13.1569 20.8365 13.1643 21.0087 13.1643C22.5905 13.1643 23.9898 12.0792 24.7902 10.8965H30.3946C30.729 10.8965 31.0001 10.6254 31.0001 10.291V2.65734C31.0001 2.32294 30.729 2.05187 30.3946 2.05187ZM9.14777 1.46299L10.5278 2.84297C10.1176 3.09667 9.64329 3.23241 9.14777 3.23241C8.6522 3.23241 8.17799 3.09673 7.76779 2.84297L9.14777 1.46299ZM4.64175 8.7291L3.26177 7.34905L4.64175 5.96907C4.89545 6.37928 5.03119 6.85354 5.03119 7.34905C5.03119 7.84457 4.89551 8.31883 4.64175 8.7291ZM13.9268 18.0141L12.5471 16.6343C13.3894 16.1145 14.464 16.1145 15.3065 16.6343L13.9268 18.0141ZM16.1788 15.7621C14.8409 14.7915 13.0127 14.7915 11.6748 15.7621L5.51405 9.60134C5.98686 8.95106 6.24213 8.16995 6.24213 7.34905C6.24213 6.5281 5.98692 5.74705 5.51405 5.09677L6.89555 3.71533C7.54583 4.18814 8.32688 4.44341 9.14783 4.44341C9.96879 4.44341 10.7498 4.18814 11.4001 3.71533L12.7097 5.0249C12.4271 5.06662 12.1516 5.15974 11.8946 5.30293C11.4606 5.54476 11.1201 5.90689 10.9081 6.34501C10.2251 6.47149 9.59279 6.80213 9.09679 7.29807C7.75114 8.64379 7.75114 10.8333 9.09685 12.1791C9.76965 12.8519 10.6535 13.1883 11.5373 13.1883C12.4211 13.1883 13.305 12.8519 13.9778 12.1791C14.4156 11.7413 14.7223 11.2033 14.8759 10.617L16.9202 11.3108C16.69 12.3769 16.9257 13.4984 17.5616 14.3794L16.1788 15.7621ZM12.4977 9.80956C12.503 9.8115 12.5084 9.81343 12.5138 9.81525L13.7245 10.2262C13.633 10.6388 13.4261 11.0182 13.1216 11.3228C12.248 12.1963 10.8266 12.1964 9.95317 11.3228C9.0796 10.4493 9.0796 9.02796 9.95317 8.15439C10.1639 7.94356 10.4125 7.77882 10.6835 7.66711C10.7953 8.59723 11.465 9.4263 12.4977 9.80956ZM18.434 13.5069C18.2003 13.1261 18.068 12.6914 18.0471 12.2478C18.3372 12.4575 18.6916 12.6629 19.1149 12.8259L18.434 13.5069ZM23.8954 10.0496C23.3216 10.9904 22.2086 11.9533 21.0087 11.9533C20.7842 11.9533 20.5738 11.9373 20.377 11.9088C20.3763 11.9087 20.3755 11.9086 20.3747 11.9085C19.0671 11.7185 18.3637 10.9754 18.1319 10.6811C18.1195 10.663 18.0669 10.5941 18.0591 10.5827C17.9886 10.4566 17.8729 10.3553 17.7255 10.3052L12.9115 8.67134C12.1433 8.38301 11.7372 7.72517 11.9233 7.06909C11.9234 7.06866 11.9235 7.06824 11.9237 7.06781C11.9238 7.06733 11.924 7.06679 11.9241 7.0663C12.0106 6.76417 12.2093 6.51357 12.484 6.36057C12.7568 6.20853 13.0722 6.17081 13.373 6.25419L18.7976 7.97317C19.1164 8.07435 19.4567 7.89767 19.5577 7.57889C19.6587 7.26011 19.4822 6.91984 19.1634 6.81879L14.8491 5.45164L14.8115 5.41398C14.8111 5.41361 14.8107 5.41319 14.8103 5.41283L12.5767 3.17925L14.4965 2.4918C14.503 2.48944 14.511 2.48647 14.5174 2.48387C14.5191 2.4832 14.5222 2.48199 14.5238 2.48133C14.532 2.478 14.5401 2.47449 14.5482 2.47079C15.8461 1.87428 17.0798 2.23133 17.5634 2.41939C19.3909 3.24168 20.3663 3.8041 21.0789 4.21503C22.0697 4.78641 22.5471 5.06171 23.8954 5.17306V10.0496ZM26.1892 9.68544H25.1064V4.39104H26.1892V9.68544ZM29.7891 9.68544H27.4001V3.26281H29.7891V9.68544Z" fill="black"/>
</g>
<defs>
<clipPath id="clip0">
<rect width="31" height="31" fill="white"/>
</clipPath>
</defs>
</svg>
