<svg width="22" height="22" viewBox="0 0 22 22" fill="none" xmlns="http://www.w3.org/2000/svg">
<g clip-path="url(#clip0)">
<path d="M21.5417 9.16652H17.6578L12.7528 2.03191C12.6096 1.82334 12.3244 1.77096 12.1154 1.91374C11.9069 2.05743 11.854 2.34253 11.9973 2.5511L16.5453 9.16648H5.45467L10.0028 2.55114C10.146 2.34257 10.0932 2.05743 9.88462 1.91379C9.67695 1.771 9.39138 1.82338 9.24726 2.03195L4.34221 9.16652H0.458348C0.205004 9.16652 0 9.37153 0 9.62487C0 9.87821 0.205004 10.0832 0.458348 10.0832H1.03984L3.84171 18.8891C4.08521 19.6532 4.78702 20.1666 5.58864 20.1666H16.4114C17.213 20.1666 17.9149 19.6532 18.1583 18.8887L20.9602 10.0832H21.5417C21.795 10.0832 22 9.87821 22 9.62487C22 9.37153 21.795 9.16652 21.5417 9.16652ZM17.2846 18.6107C17.1629 18.993 16.812 19.2499 16.4114 19.2499H5.58864C5.18805 19.2499 4.83712 18.993 4.71539 18.6111L2.00187 10.0832H19.9982L17.2846 18.6107Z" fill="#103742"/>
</g>
<defs>
<clipPath id="clip0">
<rect width="22" height="22" fill="white"/>
</clipPath>
</defs>
</svg>
