<svg id="visa" xmlns="http://www.w3.org/2000/svg" width="54.986" height="16.67" viewBox="0 0 54.986 16.67">
  <path id="Path_3" data-name="Path 3" d="M10.287,25.753l2.793-15.71h4.364l-2.706,15.71Z" transform="translate(9.874 -9.519)" fill="#3c58bf"/>
  <path id="Path_4" data-name="Path 4" d="M10.287,25.753l3.579-15.71h3.578l-2.706,15.71Z" transform="translate(9.874 -9.519)" fill="#293688"/>
  <path id="Path_5" data-name="Path 5" d="M27.159,10.474a11.07,11.07,0,0,0-4.015-.7c-4.364,0-7.506,2.182-7.506,5.324,0,2.357,2.182,3.578,3.928,4.364s2.269,1.309,2.269,2.007c0,1.047-1.4,1.571-2.618,1.571a9.486,9.486,0,0,1-4.189-.873l-.611-.262-.611,3.578a14.152,14.152,0,0,0,4.975.873c4.626,0,7.681-2.182,7.681-5.5,0-1.833-1.135-3.229-3.753-4.364-1.571-.786-2.531-1.222-2.531-2.007,0-.7.786-1.4,2.531-1.4a8.005,8.005,0,0,1,3.317.611l.436.175.7-3.4Z" transform="translate(13.251 -9.775)" fill="#3c58bf"/>
  <path id="Path_6" data-name="Path 6" d="M27.159,10.474a11.07,11.07,0,0,0-4.015-.7c-4.364,0-6.72,2.182-6.72,5.324,0,2.357,1.4,3.578,3.142,4.364s2.269,1.309,2.269,2.007c0,1.047-1.4,1.571-2.618,1.571a9.486,9.486,0,0,1-4.189-.873l-.611-.262-.611,3.578a14.152,14.152,0,0,0,4.975.873c4.626,0,7.681-2.182,7.681-5.5,0-1.833-1.135-3.229-3.753-4.364-1.571-.786-2.531-1.222-2.531-2.007,0-.7.786-1.4,2.531-1.4a8.005,8.005,0,0,1,3.317.611l.436.175.7-3.4Z" transform="translate(13.251 -9.775)" fill="#293688"/>
  <path id="Path_7" data-name="Path 7" d="M28.767,10.043c-1.047,0-1.833.087-2.269,1.135L19.951,25.753h4.713l.873-2.618h5.586l.524,2.618h4.189l-3.666-15.71ZM26.759,20.516c.262-.786,1.746-4.626,1.746-4.626s.349-.96.611-1.571l.262,1.484s.873,3.928,1.047,4.8H26.759Z" transform="translate(19.15 -9.519)" fill="#3c58bf"/>
  <path id="Path_8" data-name="Path 8" d="M29.814,10.043c-1.047,0-1.833.087-2.269,1.135L19.951,25.753h4.713l.873-2.618h5.586l.524,2.618h4.189l-3.666-15.71ZM26.759,20.516c.349-.873,1.746-4.626,1.746-4.626s.349-.96.611-1.571l.262,1.484s.873,3.928,1.047,4.8H26.759Z" transform="translate(19.15 -9.519)" fill="#293688"/>
  <path id="Path_9" data-name="Path 9" d="M9.4,21,8.96,18.728a12.652,12.652,0,0,0-6.11-6.9L6.778,25.8h4.713l7.07-15.71H13.847Z" transform="translate(2.736 -9.476)" fill="#3c58bf"/>
  <path id="Path_10" data-name="Path 10" d="M9.4,21,8.96,18.728a12.652,12.652,0,0,0-6.11-6.9L6.778,25.8h4.713l7.07-15.71H14.72Z" transform="translate(2.736 -9.476)" fill="#293688"/>
  <path id="Path_11" data-name="Path 11" d="M0,10.043l.786.175c5.586,1.309,9.426,4.626,10.91,8.553l-1.571-7.419c-.262-1.047-1.047-1.309-2.007-1.309Z" transform="translate(0 -9.519)" fill="#ffbc00"/>
  <path id="Path_12" data-name="Path 12" d="M0,10.043H0c5.586,1.309,10.212,4.713,11.7,8.641l-1.484-6.2a2.13,2.13,0,0,0-2.095-1.658Z" transform="translate(0 -9.519)" fill="#f7981d"/>
  <path id="Path_13" data-name="Path 13" d="M0,10.043H0c5.586,1.309,10.212,4.713,11.7,8.641l-1.047-3.4a3.078,3.078,0,0,0-1.833-2.531Z" transform="translate(0 -9.519)" fill="#ed7c00"/>
  <g id="Group_1" data-name="Group 1" transform="translate(5.673 2.269)">
    <path id="Path_14" data-name="Path 14" d="M13.717,19.661,10.75,16.694l-1.4,3.317L9,17.828a12.652,12.652,0,0,0-6.11-6.9L6.822,24.9h4.713Z" transform="translate(-2.895 -10.933)" fill="#051244"/>
    <path id="Path_15" data-name="Path 15" d="M14.739,19.939,10.986,16.1l-.7,3.84Z" transform="translate(4.201 -5.975)" fill="#051244"/>
    <path id="Path_16" data-name="Path 16" d="M21.4,15.3h0c.349.349.524.611.436.96,0,1.047-1.4,1.571-2.618,1.571a9.486,9.486,0,0,1-4.189-.873l-.611-.262-.611,3.578a14.152,14.152,0,0,0,4.975.873c2.793,0,5.062-.786,6.371-2.182Z" transform="translate(7.578 -6.744)" fill="#051244"/>
    <path id="Path_17" data-name="Path 17" d="M20.263,23.658h4.1l.873-2.618h5.586l.524,2.618h4.189l-1.484-6.371-5.237-5.062.262,1.4s.873,3.928,1.047,4.8H26.46c.349-.873,1.746-4.626,1.746-4.626s.349-.96.611-1.571" transform="translate(13.776 -9.694)" fill="#051244"/>
  </g>
</svg>
