<svg width="18" height="18" viewBox="0 0 18 18" fill="none" xmlns="http://www.w3.org/2000/svg">
<g clip-path="url(#clip0)">
<path d="M17.7938 16.7992L12.7154 11.7208C15.0292 8.90569 14.8717 4.7267 12.2425 2.0975C9.44551 -0.699493 4.8945 -0.699493 2.0975 2.0975C-0.699493 4.8945 -0.699493 9.44551 2.0975 12.2425C4.726 14.871 8.90446 15.0302 11.7208 12.7154L16.7992 17.7938C17.0739 18.0684 17.5191 18.0684 17.7937 17.7938C18.0684 17.5191 18.0684 17.0739 17.7938 16.7992ZM11.248 11.2479C8.99938 13.4965 5.34067 13.4965 3.09207 11.2479C0.84348 8.99934 0.84348 5.34063 3.09207 3.09204C5.3406 0.84355 8.99931 0.843374 11.248 3.09204C13.4966 5.34063 13.4966 8.99934 11.248 11.2479Z" fill="white"/>
<path d="M10.6136 6.46727H7.87356V3.72719C7.87356 3.33879 7.5587 3.02393 7.17029 3.02393C6.78188 3.02393 6.46703 3.33879 6.46703 3.72719V6.46727H3.72695C3.33854 6.46727 3.02368 6.78213 3.02368 7.17054C3.02368 7.55894 3.33854 7.8738 3.72695 7.8738H6.46703V10.6139C6.46703 11.0023 6.78188 11.3171 7.17029 11.3171C7.5587 11.3171 7.87356 11.0023 7.87356 10.6139V7.8738H10.6136C11.002 7.8738 11.3169 7.55894 11.3169 7.17054C11.3169 6.78213 11.002 6.46727 10.6136 6.46727Z" fill="white"/>
</g>
<defs>
<clipPath id="clip0">
<rect width="18" height="18" fill="white"/>
</clipPath>
</defs>
</svg>
